<?xml version="1.0" standalone="no"?>
<!DOCTYPE svg PUBLIC "-//W3C//DTD SVG 20010904//EN"
 "http://www.w3.org/TR/2001/REC-SVG-20010904/DTD/svg10.dtd">
<svg version="1.0" xmlns="http://www.w3.org/2000/svg"
 width="192.000000pt" height="192.000000pt" viewBox="0 0 192.000000 192.000000"
 preserveAspectRatio="xMidYMid meet">
<metadata>
Created by potrace 1.14, written by Peter Selinger 2001-2017
</metadata>
<g transform="translate(0.000000,192.000000) scale(0.100000,-0.100000)"
fill="#000000" stroke="none">
<path d="M106 1575 c-24 -22 -26 -31 -27 -102 -4 -556 1 -1094 10 -1111 6 -11
7 -23 3 -27 -4 -5 -1 -5 6 -1 7 4 12 2 12 -5 0 -7 3 -10 6 -6 4 3 13 -1 21 -9
8 -8 20 -11 26 -7 17 11 306 10 299 -1 -3 -5 1 -5 9 0 18 12 90 14 83 3 -3 -5
0 -9 5 -9 6 0 11 5 11 10 0 6 5 10 11 10 6 0 8 -8 5 -17 -6 -17 -5 -17 8 0 7
9 16 17 19 17 4 0 4 -8 1 -17 -5 -16 -4 -16 8 -2 14 17 91 22 81 5 -4 -5 0 -5
8 0 8 5 30 9 51 10 29 1 35 -2 31 -15 -4 -13 -2 -13 10 2 16 20 32 23 21 5 -6
-10 -4 -10 7 0 19 17 29 15 23 -5 -5 -16 -4 -16 8 -3 11 13 66 15 400 15 213
0 381 -3 375 -7 -9 -6 -9 -8 0 -8 6 0 15 5 18 10 9 14 69 7 92 -11 17 -13 17
-13 3 5 -14 18 -13 19 4 13 10 -4 25 -2 34 5 12 10 14 10 8 1 -4 -7 -2 -13 3
-13 6 0 11 7 11 16 0 8 4 12 10 9 6 -4 7 1 3 11 -4 10 -2 15 4 11 13 -8 12
-46 14 604 1 419 -2 583 -11 598 -6 12 -22 26 -36 31 -15 6 -350 10 -843 10
l-818 0 -27 -25z"/>
<path d="M233 295 c0 -8 4 -12 9 -9 5 3 6 10 3 15 -9 13 -12 11 -12 -6z"/>
<path d="M395 300 c-3 -5 -1 -10 4 -10 6 0 11 5 11 10 0 6 -2 10 -4 10 -3 0
-8 -4 -11 -10z"/>
<path d="M490 299 c0 -5 5 -7 10 -4 6 3 10 8 10 11 0 2 -4 4 -10 4 -5 0 -10
-5 -10 -11z"/>
<path d="M730 300 c0 -5 5 -10 11 -10 5 0 7 5 4 10 -3 6 -8 10 -11 10 -2 0 -4
-4 -4 -10z"/>
<path d="M976 293 c-6 -14 -5 -15 5 -6 7 7 10 15 7 18 -3 3 -9 -2 -12 -12z"/>
<path d="M1033 295 c0 -8 4 -12 9 -9 5 3 6 10 3 15 -9 13 -12 11 -12 -6z"/>
<path d="M1136 293 c-6 -14 -5 -15 5 -6 7 7 10 15 7 18 -3 3 -9 -2 -12 -12z"/>
<path d="M1193 295 c0 -8 4 -12 9 -9 5 3 6 10 3 15 -9 13 -12 11 -12 -6z"/>
<path d="M1296 293 c-6 -14 -5 -15 5 -6 7 7 10 15 7 18 -3 3 -9 -2 -12 -12z"/>
<path d="M1353 295 c0 -8 4 -12 9 -9 5 3 6 10 3 15 -9 13 -12 11 -12 -6z"/>
<path d="M1456 293 c-6 -14 -5 -15 5 -6 7 7 10 15 7 18 -3 3 -9 -2 -12 -12z"/>
<path d="M1513 295 c0 -8 4 -12 9 -9 5 3 6 10 3 15 -9 13 -12 11 -12 -6z"/>
<path d="M1675 300 c3 -5 8 -10 11 -10 2 0 4 5 4 10 0 6 -5 10 -11 10 -5 0 -7
-4 -4 -10z"/>
<path d="M1716 287 c3 -10 9 -15 12 -12 3 3 0 11 -7 18 -10 9 -11 8 -5 -6z"/>
</g>
</svg>
